<?xml version="1.0" encoding="UTF-8"?>
<svg id="Ebene_1" xmlns="http://www.w3.org/2000/svg" xmlns:xlink="http://www.w3.org/1999/xlink" version="1.1" viewBox="0 0 2000 2000">
  <!-- Generator: Adobe Illustrator 29.2.1, SVG Export Plug-In . SVG Version: 2.1.0 Build 116)  -->
  <defs>
    <style>
      .st0 {
        fill: url(#Gradient);
      }
    </style>
    <linearGradient id="Gradient" x1="1000" y1="1551.47" x2="1000" y2="448.53" gradientUnits="userSpaceOnUse">
      <stop offset="0" stop-color="#e6332a"/>
      <stop offset="1" stop-color="#8c3cdd"/>
    </linearGradient>
  </defs>
  <path class="st0" d="M1478.33,1279.67c-12.63-86.17-61.03-167.86-113.34-235.62v-1.72c5.99-4.12,13.65-10.59,18.94-15.96,104.8-106.34,130.42-282.68,43.51-407.91-89.29-128.67-264.9-163.13-411.99-168.79-135.71-5.22-296.99,3.58-393.92,111.19-104,115.47-88.53,257.18-93.97,401.65-4.98,132.17-26.58,313.8,24.24,436.99,51.01,123.68,194.79,194.37,315.81,117.17,92.45-58.98,114.64-172.23,105.83-275.04-2.75-32.05-7.69-63.81-14.42-95.18,17.33,9.51,47.39,17.7,90.18.19-8.47,84.8-5.07,206.06,22.7,272.14,27.28,64.93,115.51,127.73,185.97,132.22,152.23,9.7,240.98-131.21,220.46-271.33ZM1046,964.64c-37.7,31.83-72.22,31.79-109.24-2.16-61.5-56.39-116.52-215.16-84.54-293.94,20-49.26,88.33-53.89,111.99-5.57,18.13,37.04,34.79,111.03,34.79,111.03,11.57-40.35,18.17-116.78,59.17-137.27,45.78-22.89,83.72,5.48,90.19,52.64,11.21,81.79-38.94,221.74-102.36,275.27Z"/>
</svg>